<svg width="27" height="26" viewBox="0 0 27 26" fill="none" xmlns="http://www.w3.org/2000/svg">
<g id="Group 63">
<path id="Vector" d="M12.7575 11.1328C12.7575 10.6802 12.3909 10.3128 11.9375 10.3128C11.484 10.3128 11.1175 10.6802 11.1175 11.1328V13.4378H8.81249C8.35903 13.4378 7.99248 13.8052 7.99248 14.2578C7.99248 14.7104 8.35903 15.0778 8.81249 15.0778H11.1175V17.3828C11.1175 17.8354 11.484 18.2028 11.9375 18.2028C12.3909 18.2028 12.7575 17.8354 12.7575 17.3828V15.0778H15.0624C15.5159 15.0778 15.8825 14.7104 15.8825 14.2578C15.8825 13.8052 15.5159 13.4378 15.0624 13.4378H12.7575V11.1328Z" fill="#1A2A39" stroke="#1A2A39" stroke-width="0.077533"/>
<path id="Vector_2" d="M25.2186 22.109C25.672 22.109 26.0386 21.7424 26.0386 21.289V1.75781C26.0386 0.873901 25.3212 0.156546 24.4373 0.156546H4.90624C4.45281 0.156546 4.08623 0.52312 4.08623 0.97656C4.08623 1.43 4.45281 1.79657 4.90624 1.79657H24.3986V21.289C24.3986 21.7424 24.7651 22.109 25.2186 22.109Z" fill="#1A2A39" stroke="#1A2A39" stroke-width="0.077533"/>
<path id="Vector_3" d="M0.961233 23.6328C0.961233 24.5167 1.67858 25.234 2.56249 25.234H4.90622C5.35966 25.234 5.72623 24.8674 5.72623 24.414C5.72623 23.9606 5.35966 23.594 4.90622 23.594H2.60125V4.92157H21.2736V23.594H8.03119C7.57775 23.594 7.21118 23.9606 7.21118 24.414C7.21118 24.8674 7.57775 25.234 8.03119 25.234H21.3123C22.1962 25.234 22.9136 24.5167 22.9136 23.6328V4.88281C22.9136 3.9989 22.1962 3.28155 21.3123 3.28155H2.56249C1.67858 3.28155 0.961233 3.9989 0.961233 4.88281V23.6328Z" fill="#1A2A39" stroke="#1A2A39" stroke-width="0.077533"/>
</g>
</svg>
