<svg width="20" height="30" viewBox="0 0 20 30" fill="none" xmlns="http://www.w3.org/2000/svg">
<path id="Vector" d="M3.41808 15L19.5848 1.91705C19.7179 1.81161 19.8231 1.68644 19.8944 1.54877C19.9656 1.4111 20.0015 1.26367 20 1.11501C19.9984 0.966349 19.9594 0.819408 19.8852 0.682691C19.8111 0.545974 19.7032 0.422197 19.5679 0.31852C19.4326 0.214844 19.2725 0.133327 19.0969 0.0786887C18.9214 0.0240501 18.7338 -0.0026262 18.545 0.000203735C18.3562 0.00303367 18.1701 0.0353137 17.9973 0.0951755C17.8245 0.155037 17.6684 0.241293 17.5382 0.34895L0.40443 14.216C0.145098 14.4259 0 14.7071 0 15C0 15.2929 0.145098 15.5741 0.40443 15.784L17.5382 29.6511C17.6684 29.7587 17.8245 29.845 17.9973 29.9048C18.1701 29.9647 18.3562 29.997 18.545 29.9998C18.7338 30.0026 18.9214 29.976 19.0969 29.9213C19.2725 29.8667 19.4326 29.7852 19.5679 29.6815C19.7032 29.5778 19.8111 29.454 19.8852 29.3173C19.9594 29.1806 19.9984 29.0337 20 28.885C20.0015 28.7363 19.9656 28.5889 19.8944 28.4512C19.8231 28.3136 19.7179 28.1884 19.5848 28.083L3.41808 15Z" fill="#146574"/>
</svg>
