<svg width="141" height="156" viewBox="0 0 141 156" fill="none" xmlns="http://www.w3.org/2000/svg">
<g id="Cabinet icon" filter="url(#filter0_d_278_77)">
<path d="M14.5047 126.093H126.576C128.088 126.093 129.315 124.931 129.315 123.499V92.3161C129.315 90.8839 128.088 89.7221 126.576 89.7221H14.5047C12.9927 89.7221 11.766 90.8839 11.766 92.3161V123.499C11.766 124.931 12.9927 126.093 14.5047 126.093ZM17.2434 94.9102H123.837V120.905H17.2434V94.9102ZM14.5047 46.0828H126.576C128.088 46.0828 129.315 44.921 129.315 43.4888V12.3062C129.315 10.874 128.088 9.71209 126.576 9.71209H14.5047C12.9927 9.71209 11.766 10.874 11.766 12.3062V43.4888C11.766 44.921 12.9927 46.0828 14.5047 46.0828ZM17.2434 14.9002H123.837V40.8947H17.2434V14.9002ZM14.5047 86.087H126.576C128.088 86.087 129.315 84.9251 129.315 83.4929V52.312C129.315 50.8798 128.088 49.7179 126.576 49.7179H14.5047C12.9927 49.7179 11.766 50.8798 11.766 52.312V83.4946C11.766 84.9268 12.9927 86.087 14.5047 86.087ZM17.2434 54.9061H123.837V80.9005H17.2434V54.9061ZM135.891 0.888878H5.19127C3.67921 0.888878 2.45255 2.05075 2.45255 3.48295V132.32C2.45255 133.752 3.67921 134.914 5.19127 134.914H11.766V149.406C11.766 150.838 12.9927 152 14.5047 152H26.4523C27.3936 152 28.2692 151.542 28.7709 150.786L39.3057 134.913H101.777L112.31 150.784C112.812 151.542 113.687 152 114.629 152H126.576C128.088 152 129.315 150.838 129.315 149.406V134.914H135.891C137.403 134.914 138.63 133.752 138.63 132.32V3.48295C138.63 2.05075 137.403 0.888878 135.891 0.888878ZM24.9402 146.812H17.2452V134.914H32.8373L24.9402 146.812ZM123.837 146.812H116.142L108.247 134.914H123.837V146.812ZM133.153 129.726H7.93V6.07703H133.151L133.153 129.726ZM83.4479 24.756C84.4175 25.8558 84.2615 27.4911 83.1005 28.4096L79.3655 31.3646C78.8727 31.7542 78.2523 31.9674 77.6106 31.9674H63.4721C62.8304 31.9674 62.2099 31.7542 61.7171 31.3646L57.9822 28.4096C56.8211 27.4911 56.6651 25.8558 57.6348 24.756C58.6044 23.6563 60.3309 23.5102 61.492 24.4269L64.4647 26.7776H76.6162L79.5889 24.4269C80.75 23.5119 82.4783 23.6563 83.4479 24.756ZM83.4479 64.7619C84.4175 65.8616 84.2615 67.497 83.1005 68.4154L79.3655 71.3705C78.8727 71.76 78.2523 71.9732 77.6106 71.9732H63.4721C62.8304 71.9732 62.2099 71.76 61.7171 71.3705L57.9822 68.4154C56.8211 67.497 56.6651 65.8616 57.6348 64.7619C58.6044 63.6604 60.3309 63.516 61.492 64.4328L64.4647 66.7834H76.6162L79.5889 64.4328C80.75 63.516 82.4783 63.6604 83.4479 64.7619ZM83.4479 104.768C84.4175 105.867 84.2615 107.503 83.1005 108.421L79.3655 111.376C78.8727 111.766 78.2523 111.979 77.6106 111.979H63.4721C62.8304 111.979 62.2099 111.766 61.7171 111.376L57.9822 108.421C56.8211 107.503 56.6651 105.867 57.6348 104.768C58.6044 103.666 60.3309 103.522 61.492 104.439L64.4647 106.789H76.6162L79.5889 104.439C80.75 103.52 82.4783 103.666 83.4479 104.768Z" fill="#9B8E82"/>
</g>
<defs>
<filter id="filter0_d_278_77" x="0.452545" y="0.888878" width="140.178" height="155.111" filterUnits="userSpaceOnUse" color-interpolation-filters="sRGB">
<feFlood flood-opacity="0" result="BackgroundImageFix"/>
<feColorMatrix in="SourceAlpha" type="matrix" values="0 0 0 0 0 0 0 0 0 0 0 0 0 0 0 0 0 0 127 0" result="hardAlpha"/>
<feOffset dy="2"/>
<feGaussianBlur stdDeviation="1"/>
<feComposite in2="hardAlpha" operator="out"/>
<feColorMatrix type="matrix" values="0 0 0 0 0 0 0 0 0 0 0 0 0 0 0 0 0 0 0.25 0"/>
<feBlend mode="normal" in2="BackgroundImageFix" result="effect1_dropShadow_278_77"/>
<feBlend mode="normal" in="SourceGraphic" in2="effect1_dropShadow_278_77" result="shape"/>
</filter>
</defs>
</svg>
