<svg width="31" height="32" viewBox="0 0 31 32" fill="none" xmlns="http://www.w3.org/2000/svg">
<g id="Group">
<path id="Vector" d="M5.05405 6.15424H29.3784L26.3378 20.1974H8.09459M26.3378 24.5184H9.10811L4.04054 1.83325H1" stroke="#78858C" stroke-width="2" stroke-linecap="round" stroke-linejoin="round"/>
<path id="Vector_2" d="M24.3107 31.0002C25.4302 31.0002 26.3377 30.0329 26.3377 28.8397C26.3377 27.6465 25.4302 26.6792 24.3107 26.6792C23.1912 26.6792 22.2837 27.6465 22.2837 28.8397C22.2837 30.0329 23.1912 31.0002 24.3107 31.0002Z" stroke="#78858C" stroke-width="2" stroke-linecap="round" stroke-linejoin="round"/>
<path id="Vector_3" d="M11.1352 31.0002C12.2547 31.0002 13.1622 30.0329 13.1622 28.8397C13.1622 27.6465 12.2547 26.6792 11.1352 26.6792C10.0157 26.6792 9.10815 27.6465 9.10815 28.8397C9.10815 30.0329 10.0157 31.0002 11.1352 31.0002Z" stroke="#78858C" stroke-width="2" stroke-linecap="round" stroke-linejoin="round"/>
</g>
</svg>
