<svg width="155" height="156" viewBox="0 0 155 156" fill="none" xmlns="http://www.w3.org/2000/svg">
<g id="Closet icon" filter="url(#filter0_d_278_67)">
<path id="Union" fill-rule="evenodd" clip-rule="evenodd" d="M152.342 0.888878H2.22232V145.682H15.7415V152H21.9747V145.682H133.236V152H139.469V145.682H152.34L152.342 0.888878ZM8.4555 125.462V7.12206H50.7498V125.462H8.4555ZM56.983 7.12206V125.462H98.5063V7.12206H56.983ZM104.738 125.464V7.12206H146.107L146.108 125.464H104.738ZM8.4555 139.45V131.697H146.108V139.45H8.4555ZM19.426 63.2763H13.1928V82.1431H19.426V63.2763ZM67.5687 63.2763H61.3355V82.1431H67.5687V63.2763ZM115.866 63.2763H109.633V82.1431H115.866V63.2763Z" fill="#9B8E82"/>
</g>
<defs>
<filter id="filter0_d_278_67" x="0.222321" y="0.888878" width="154.119" height="155.111" filterUnits="userSpaceOnUse" color-interpolation-filters="sRGB">
<feFlood flood-opacity="0" result="BackgroundImageFix"/>
<feColorMatrix in="SourceAlpha" type="matrix" values="0 0 0 0 0 0 0 0 0 0 0 0 0 0 0 0 0 0 127 0" result="hardAlpha"/>
<feOffset dy="2"/>
<feGaussianBlur stdDeviation="1"/>
<feComposite in2="hardAlpha" operator="out"/>
<feColorMatrix type="matrix" values="0 0 0 0 0 0 0 0 0 0 0 0 0 0 0 0 0 0 0.25 0"/>
<feBlend mode="normal" in2="BackgroundImageFix" result="effect1_dropShadow_278_67"/>
<feBlend mode="normal" in="SourceGraphic" in2="effect1_dropShadow_278_67" result="shape"/>
</filter>
</defs>
</svg>
