<svg width="27" height="26" viewBox="0 0 27 26" fill="none" xmlns="http://www.w3.org/2000/svg">
<g id="Group">
<g id="Group_2">
<path id="Vector" d="M24.4489 25.6616C25.4123 25.6616 26.1933 24.8806 26.1933 23.9171V2.01843C26.1933 1.05498 25.4123 0.273941 24.4489 0.273941H2.55017C1.58672 0.273941 0.805679 1.05498 0.805679 2.01843V23.9171C0.805679 24.8806 1.58672 25.6616 2.55017 25.6616H24.4489ZM3.59184 24.2323C2.84248 24.2323 2.23501 23.6248 2.23501 22.8754V3.0601C2.23501 2.31075 2.84248 1.70327 3.59184 1.70327H23.4072C24.1565 1.70327 24.764 2.31074 24.764 3.0601V22.8754C24.764 23.6248 24.1565 24.2323 23.4072 24.2323H3.59184Z" fill="#1A2A39" stroke="#1A2A39" stroke-width="0.387665"/>
</g>
<g id="Group_3">
<path id="Vector_2" d="M25.6712 5.72852V5.53468H25.4774H1.51904H1.32521V5.72852V6.77018V6.96402H1.51904H25.4774H25.6712V6.77018V5.72852Z" fill="#1A2A39" stroke="#1A2A39" stroke-width="0.387665"/>
</g>
<g id="Group_4">
<path id="Vector_3" d="M25.6712 19.2178V19.0239H25.4774H1.51904H1.32521V19.2178V20.2594V20.4533H1.51904H25.4774H25.6712V20.2594V19.2178Z" fill="#1A2A39" stroke="#1A2A39" stroke-width="0.387665"/>
</g>
<g id="Group_5">
<path id="Vector_4" d="M18.902 0.988281V0.794449H18.7082H17.6665H17.4727V0.988281V19.7904V19.9842H17.6665H18.7082H18.902V19.7904V0.988281Z" fill="#1A2A39" stroke="#1A2A39" stroke-width="0.387665"/>
</g>
<g id="Group_6">
<path id="Vector_5" d="M9.73501 6.09277V5.89894H9.54118H8.49951H8.30568V6.09277V24.7907V24.9845H8.49951H9.54118H9.73501V24.7907V6.09277Z" fill="#1A2A39" stroke="#1A2A39" stroke-width="0.387665"/>
</g>
</g>
</svg>
