<svg width="81" height="71" viewBox="0 0 81 71" fill="none" xmlns="http://www.w3.org/2000/svg">
<g id="Image icon">
<g id="Image icon_2">
<path d="M40.742 70.8064C29.0229 70.8064 17.3038 70.8064 5.58474 70.8064C5.01227 70.8064 4.4324 70.8064 3.85747 70.7472C0.923584 70.4733 -0.255893 68.4968 0.995142 65.8245C2.08085 63.5173 3.26526 61.2694 4.41513 58.987C9.84369 48.2401 15.2722 37.4948 20.7008 26.7512C20.8686 26.4231 21.0438 26.0949 21.2387 25.7815C22.6057 23.5903 24.8265 23.2819 26.576 25.172C27.8097 26.4946 28.8535 27.9801 29.954 29.4137C35.5471 36.7225 41.1401 44.0346 46.7332 51.35C49.176 54.5331 52.253 54.7058 55.1228 51.8435C56.5465 50.4222 57.9382 48.9639 59.3792 47.5549C61.9775 45.0134 64.9262 45.1664 67.0483 48.1299C71.3073 54.0766 75.4601 60.1023 79.6327 66.1082C79.9588 66.5794 80.2086 67.0991 80.3729 67.648C80.7776 69.0273 80.2051 70.1377 78.8061 70.5054C77.9288 70.7154 77.0282 70.8124 76.1263 70.7941C64.3381 70.8138 52.5434 70.8179 40.742 70.8064Z" fill="#146574"/>
<path d="M67.0236 11.919C67.0206 14.2128 66.3366 16.4541 65.0582 18.3587C63.7799 20.2634 61.9648 21.7455 59.8431 22.6173C57.7213 23.4891 55.3885 23.7112 53.1404 23.2556C50.8922 22.8 48.83 21.6871 47.2151 20.058C45.6003 18.4289 44.5055 16.357 44.0696 14.105C43.6336 11.8529 43.8762 9.52215 44.7666 7.40814C45.6569 5.29414 47.1549 3.4921 49.0707 2.23049C50.9864 0.968877 53.2336 0.304509 55.5274 0.321611C58.5818 0.360426 61.4987 1.59793 63.6492 3.76734C65.7997 5.93676 67.0115 8.86434 67.0236 11.919Z" fill="#146574"/>
</g>
</g>
</svg>
