<svg width="24" height="24" viewBox="0 0 24 24" fill="none" xmlns="http://www.w3.org/2000/svg">
<path id="Vector" d="M11.6077 5.37526e-05C11.5445 -0.000232102 11.4814 0.00143591 11.4183 0.00505551C10.8952 0.0351735 10.4011 0.203081 9.85695 0.610104L10.9298 11.1935C10.4951 11.3078 10.0663 11.4339 9.64497 11.575L6.01099 1.86221C5.6469 1.77045 5.1079 1.84607 4.6065 2.111C4.0759 2.39137 3.62099 2.85535 3.42532 3.3446L6.90724 12.817C6.52337 13.0507 6.15182 13.3084 5.79405 13.5952L1.94483 8.52624C1.0988 8.56378 0.134463 9.30366 0 10.2825C0.376156 10.7299 3.74618 14.7677 5.40417 17.9749C5.93747 19.0067 6.9338 20.703 7.43319 21.7431C7.73504 22.372 8.26182 23.0467 8.8748 23.4826C9.48783 23.9184 10.1537 24.1183 10.8375 23.928L16.6834 22.3027C16.9678 22.2236 17.1596 22.0128 17.3679 21.6607C17.576 21.3087 17.758 20.8466 18.0361 20.4237C19.1032 18.8003 20.6473 16.3317 24 14.3968C23.8604 13.5872 23.6166 13.0753 23.3414 12.8068C23.0292 12.502 22.6581 12.4103 22.115 12.4926C21.1798 12.634 19.8629 13.4102 18.5117 14.4757C18.4255 14.5501 18.3403 14.6258 18.2561 14.7027L17.8936 11.4084L20.0941 3.03358C19.8623 2.63801 19.3793 2.32054 18.8078 2.17468C18.2447 2.03108 17.6425 2.08336 17.24 2.26046L15.2336 10.321C14.7487 10.406 14.2637 10.4915 13.7806 10.5798L13.051 0.231962C12.5303 0.0964313 12.0526 0.00220507 11.6078 0L11.6077 5.37526e-05ZM11.0138 12.4674L12.5752 15.5128L15.3922 13.6893L13.6432 16.6035L16.5652 18.2221L13.2434 18.1044L13.3567 21.5482L11.8018 18.5179L8.99124 20.3364L10.7501 17.4086L7.82317 15.7884L11.1255 15.9044L11.0138 12.4674Z" fill="#146574"/>
</svg>
