<svg width="156" height="156" viewBox="0 0 156 156" fill="none" xmlns="http://www.w3.org/2000/svg">
<g id="Kitchen icon" filter="url(#filter0_d_278_28)">
<path id="Vector" d="M150.593 45.3333H4.51852C3.1283 45.3333 2 44.205 2 42.8148V2.51852C2 1.1283 3.1283 0 4.51852 0H150.593C151.983 0 153.111 1.1283 153.111 2.51852V42.8148C153.111 44.205 151.983 45.3333 150.593 45.3333ZM7.03704 40.2963H148.074V5.03704H7.03704V40.2963Z" fill="#9B8E82"/>
<path id="Vector_2" d="M150.593 151.111H4.51852C3.1283 151.111 2 149.983 2 148.593V88.1482C2 86.7579 3.1283 85.6296 4.51852 85.6296H150.593C151.983 85.6296 153.111 86.7579 153.111 88.1482V148.593C153.111 149.983 151.983 151.111 150.593 151.111ZM7.03704 146.074H148.074V90.6667H7.03704V146.074Z" fill="#9B8E82"/>
<path id="Vector_3" d="M49.8516 35.2593H14.5924C13.2021 35.2593 12.0739 34.131 12.0739 32.7408V12.5926C12.0739 11.2024 13.2021 10.0741 14.5924 10.0741H49.8516C51.2419 10.0741 52.3701 11.2024 52.3701 12.5926V32.7408C52.3701 34.131 51.2419 35.2593 49.8516 35.2593ZM17.1109 30.2223H47.3331V15.1111H17.1109V30.2223Z" fill="#9B8E82"/>
<path id="Vector_4" d="M39.7778 25.1852H24.6667C23.2765 25.1852 22.1482 24.0569 22.1482 22.6667C22.1482 21.2764 23.2765 20.1481 24.6667 20.1481H39.7778C41.168 20.1481 42.2963 21.2764 42.2963 22.6667C42.2963 24.0569 41.168 25.1852 39.7778 25.1852Z" fill="#9B8E82"/>
<path id="Vector_5" d="M140.518 35.2593H105.259C103.869 35.2593 102.74 34.131 102.74 32.7408V12.5926C102.74 11.2024 103.869 10.0741 105.259 10.0741H140.518C141.908 10.0741 143.037 11.2024 143.037 12.5926V32.7408C143.037 34.131 141.908 35.2593 140.518 35.2593ZM107.778 30.2223H138V15.1111H107.778V30.2223Z" fill="#9B8E82"/>
<path id="Vector_6" d="M130.445 25.1852H115.333C113.943 25.1852 112.815 24.0569 112.815 22.6667C112.815 21.2764 113.943 20.1481 115.333 20.1481H130.445C131.835 20.1481 132.963 21.2764 132.963 22.6667C132.963 24.0569 131.835 25.1852 130.445 25.1852Z" fill="#9B8E82"/>
<path id="Vector_7" d="M95.1849 35.2593H59.9257C58.5355 35.2593 57.4072 34.131 57.4072 32.7408V12.5926C57.4072 11.2024 58.5355 10.0741 59.9257 10.0741H95.1849C96.5752 10.0741 97.7035 11.2024 97.7035 12.5926V32.7408C97.7035 34.131 96.5752 35.2593 95.1849 35.2593ZM62.4442 30.2223H92.6664V15.1111H62.4442V30.2223Z" fill="#9B8E82"/>
<path id="Vector_8" d="M85.1112 25.1852H70.0001C68.6098 25.1852 67.4815 24.0569 67.4815 22.6667C67.4815 21.2764 68.6098 20.1481 70.0001 20.1481H85.1112C86.5014 20.1481 87.6297 21.2764 87.6297 22.6667C87.6297 24.0569 86.5014 25.1852 85.1112 25.1852Z" fill="#9B8E82"/>
<path id="Vector_9" d="M140.519 141.037H77.5557C76.1655 141.037 75.0372 139.909 75.0372 138.518V98.2222C75.0372 96.832 76.1655 95.7037 77.5557 95.7037H140.519C141.909 95.7037 143.037 96.832 143.037 98.2222V138.518C143.037 139.909 141.909 141.037 140.519 141.037ZM80.0742 136H138V100.741H80.0742V136Z" fill="#9B8E82"/>
<path id="Vector_10" d="M77.5553 141.037H14.5924C13.2021 141.037 12.0739 139.909 12.0739 138.518V98.2222C12.0739 96.832 13.2021 95.7037 14.5924 95.7037H77.5553C78.9456 95.7037 80.0739 96.832 80.0739 98.2222V138.518C80.0739 139.909 78.9456 141.037 77.5553 141.037ZM17.1109 136H75.0368V100.741H17.1109V136Z" fill="#9B8E82"/>
<path id="Vector_11" d="M110.296 90.6667H44.8147C43.4244 90.6667 42.2961 89.5384 42.2961 88.1481V78.0741C42.2961 76.6838 43.4244 75.5555 44.8147 75.5555H110.296C111.686 75.5555 112.815 76.6838 112.815 78.0741V88.1481C112.815 89.5384 111.686 90.6667 110.296 90.6667ZM47.3332 85.6296H107.778V80.5926H47.3332V85.6296Z" fill="#9B8E82"/>
<path id="Vector_12" d="M110.296 52.8889H44.8147C43.4244 52.8889 42.2961 51.7606 42.2961 50.3704V42.8148C42.2961 41.4246 43.4244 40.2963 44.8147 40.2963H110.296C111.686 40.2963 112.815 41.4246 112.815 42.8148V50.3704C112.815 51.7606 111.686 52.8889 110.296 52.8889ZM47.3332 47.8519H107.778V45.3333H47.3332V47.8519Z" fill="#9B8E82"/>
<path id="Vector_13" d="M22.1481 90.6667C16.5418 90.6667 11.6761 86.8687 10.3161 81.4287L7.1125 68.612C6.92361 67.859 7.09487 67.0631 7.57087 66.4511C8.04687 65.8391 8.77976 65.4815 9.55547 65.4815H34.7407C35.5164 65.4815 36.2492 65.8391 36.7252 66.4511C37.2012 67.0631 37.3725 67.859 37.1836 68.612L33.9801 81.4287C32.6201 86.8687 27.7543 90.6667 22.1481 90.6667ZM12.7817 70.5185L15.2045 80.2073C16.0029 83.4007 18.8564 85.6296 22.1481 85.6296C25.4398 85.6296 28.2932 83.4007 29.0916 80.2073L31.5144 70.5185H12.7817Z" fill="#9B8E82"/>
<path id="Vector_14" d="M39.7777 141.037H29.7036C28.3134 141.037 27.1851 139.909 27.1851 138.519V128.444C27.1851 124.279 30.575 120.889 34.7407 120.889C38.9063 120.889 42.2962 124.279 42.2962 128.444V138.519C42.2962 139.909 41.1679 141.037 39.7777 141.037ZM32.2222 136H37.2592V128.444C37.2592 127.057 36.1284 125.926 34.7407 125.926C33.353 125.926 32.2222 127.057 32.2222 128.444V136Z" fill="#9B8E82"/>
<path id="Vector_15" d="M34.7408 125.926C33.3506 125.926 32.2223 124.798 32.2223 123.407V113.333C32.2223 111.943 33.3506 110.815 34.7408 110.815C36.131 110.815 37.2593 111.943 37.2593 113.333V123.407C37.2593 124.798 36.131 125.926 34.7408 125.926Z" fill="#9B8E82"/>
<path id="Vector_16" d="M57.4075 125.926C56.0173 125.926 54.889 124.798 54.889 123.407V113.333C54.889 111.943 56.0173 110.815 57.4075 110.815C58.7977 110.815 59.926 111.943 59.926 113.333V123.407C59.926 124.798 58.7977 125.926 57.4075 125.926Z" fill="#9B8E82"/>
<path id="Vector_17" d="M39.7777 115.852H29.7036C28.3134 115.852 27.1851 114.724 27.1851 113.333C27.1851 111.943 28.3134 110.815 29.7036 110.815H39.7777C41.1679 110.815 42.2962 111.943 42.2962 113.333C42.2962 114.724 41.1679 115.852 39.7777 115.852Z" fill="#9B8E82"/>
<path id="Vector_18" d="M62.4444 141.037H52.3703C50.9801 141.037 49.8518 139.909 49.8518 138.519V128.444C49.8518 124.279 53.2417 120.889 57.4074 120.889C61.573 120.889 64.9629 124.279 64.9629 128.444V138.519C64.9629 139.909 63.8346 141.037 62.4444 141.037ZM54.8888 136H59.9259V128.444C59.9259 127.057 58.7951 125.926 57.4074 125.926C56.0197 125.926 54.8888 127.057 54.8888 128.444V136Z" fill="#9B8E82"/>
<path id="Vector_19" d="M62.4444 115.852H52.3703C50.9801 115.852 49.8518 114.724 49.8518 113.333C49.8518 111.943 50.9801 110.815 52.3703 110.815H62.4444C63.8346 110.815 64.9629 111.943 64.9629 113.333C64.9629 114.724 63.8346 115.852 62.4444 115.852Z" fill="#9B8E82"/>
<path id="Vector_20" d="M122.889 120.889H95.1852C93.795 120.889 92.6667 119.761 92.6667 118.37V108.296C92.6667 106.906 93.795 105.778 95.1852 105.778C96.5754 105.778 97.7037 106.906 97.7037 108.296V115.852H120.37V108.296C120.37 106.906 121.499 105.778 122.889 105.778C124.279 105.778 125.407 106.906 125.407 108.296V118.37C125.407 119.761 124.279 120.889 122.889 120.889Z" fill="#9B8E82"/>
<path id="Vector_21" d="M140.519 110.815H77.5557C76.1655 110.815 75.0372 109.687 75.0372 108.296C75.0372 106.906 76.1655 105.778 77.5557 105.778H140.519C141.909 105.778 143.037 106.906 143.037 108.296C143.037 109.687 141.909 110.815 140.519 110.815Z" fill="#9B8E82"/>
<path id="Vector_22" d="M49.8518 80.5926C48.4616 80.5926 47.3333 79.4643 47.3333 78.0741V68C47.3333 66.6098 48.4616 65.4815 49.8518 65.4815H54.8889C56.2791 65.4815 57.4074 66.6098 57.4074 68C57.4074 69.3902 56.2791 70.5185 54.8889 70.5185H52.3703V78.0741C52.3703 79.4643 51.2421 80.5926 49.8518 80.5926Z" fill="#9B8E82"/>
<path id="Vector_23" d="M69.9999 80.5926C68.6097 80.5926 67.4814 79.4643 67.4814 78.0741V70.5185H64.9629C63.5726 70.5185 62.4443 69.3902 62.4443 68C62.4443 66.6098 63.5726 65.4815 64.9629 65.4815H69.9999C71.3901 65.4815 72.5184 66.6098 72.5184 68V78.0741C72.5184 79.4643 71.3901 80.5926 69.9999 80.5926Z" fill="#9B8E82"/>
<path id="Vector_24" d="M85.1114 80.5926C83.7211 80.5926 82.5928 79.4643 82.5928 78.0741V68C82.5928 66.6098 83.7211 65.4815 85.1114 65.4815H90.1484C91.5386 65.4815 92.6669 66.6098 92.6669 68C92.6669 69.3902 91.5386 70.5185 90.1484 70.5185H87.6299V78.0741C87.6299 79.4643 86.5016 80.5926 85.1114 80.5926Z" fill="#9B8E82"/>
<path id="Vector_25" d="M105.259 80.5926C103.869 80.5926 102.741 79.4643 102.741 78.0741V70.5185H100.222C98.8322 70.5185 97.7039 69.3902 97.7039 68C97.7039 66.6098 98.8322 65.4815 100.222 65.4815H105.259C106.65 65.4815 107.778 66.6098 107.778 68V78.0741C107.778 79.4643 106.65 80.5926 105.259 80.5926Z" fill="#9B8E82"/>
<path id="Vector_26" d="M135.482 90.6667H132.963C126.02 90.6667 120.371 85.0176 120.371 78.0741C120.371 76.6838 121.499 75.5555 122.889 75.5555H145.556C146.946 75.5555 148.074 76.6838 148.074 78.0741C148.074 85.0176 142.425 90.6667 135.482 90.6667ZM125.838 80.5926C126.878 83.5241 129.679 85.6296 132.963 85.6296H135.482C138.766 85.6296 141.566 83.5241 142.607 80.5926H125.838Z" fill="#9B8E82"/>
<path id="Vector_27" d="M135.482 80.5926H132.963C126.02 80.5926 120.371 74.9435 120.371 68C120.371 66.6098 121.499 65.4815 122.889 65.4815H145.556C146.946 65.4815 148.074 66.6098 148.074 68C148.074 74.9435 142.425 80.5926 135.482 80.5926ZM125.838 70.5185C126.878 73.4501 129.679 75.5555 132.963 75.5555H135.482C138.766 75.5555 141.566 73.4501 142.607 70.5185H125.838Z" fill="#9B8E82"/>
<path id="Vector_28" d="M135.482 70.5186H132.963C126.02 70.5186 120.371 64.8695 120.371 57.926C120.371 56.5357 121.499 55.4074 122.889 55.4074H145.556C146.946 55.4074 148.074 56.5357 148.074 57.926C148.074 64.8695 142.425 70.5186 135.482 70.5186ZM125.838 60.4445C126.878 63.376 129.679 65.4815 132.963 65.4815H135.482C138.766 65.4815 141.566 63.376 142.607 60.4445H125.838Z" fill="#9B8E82"/>
<path id="Vector_29" d="M17.1138 70.5186C16.2575 70.5186 15.4239 70.0828 14.9529 69.2971L7.39739 56.7045C6.68213 55.5107 7.06746 53.9643 8.26124 53.2491C9.45502 52.5338 11.0014 52.9191 11.7166 54.1129L19.2722 66.7055C19.9875 67.8993 19.6021 69.4457 18.4083 70.1609C18.0029 70.4027 17.5546 70.5186 17.1138 70.5186Z" fill="#9B8E82"/>
<path id="Vector_30" d="M52.3703 57.9259C50.9801 57.9259 49.8518 56.7976 49.8518 55.4074V50.3704C49.8518 48.9802 50.9801 47.8519 52.3703 47.8519C53.7605 47.8519 54.8888 48.9802 54.8888 50.3704V55.4074C54.8888 56.7976 53.7605 57.9259 52.3703 57.9259Z" fill="#9B8E82"/>
<path id="Vector_31" d="M64.9629 57.9259C63.5726 57.9259 62.4443 56.7976 62.4443 55.4074V50.3704C62.4443 48.9802 63.5726 47.8519 64.9629 47.8519C66.3531 47.8519 67.4814 48.9802 67.4814 50.3704V55.4074C67.4814 56.7976 66.3531 57.9259 64.9629 57.9259Z" fill="#9B8E82"/>
<path id="Vector_32" d="M77.5557 57.9259C76.1655 57.9259 75.0372 56.7976 75.0372 55.4074V50.3704C75.0372 48.9802 76.1655 47.8519 77.5557 47.8519C78.9459 47.8519 80.0742 48.9802 80.0742 50.3704V55.4074C80.0742 56.7976 78.9459 57.9259 77.5557 57.9259Z" fill="#9B8E82"/>
<path id="Vector_33" d="M90.148 57.9259C88.7578 57.9259 87.6295 56.7976 87.6295 55.4074V50.3704C87.6295 48.9802 88.7578 47.8519 90.148 47.8519C91.5382 47.8519 92.6665 48.9802 92.6665 50.3704V55.4074C92.6665 56.7976 91.5382 57.9259 90.148 57.9259Z" fill="#9B8E82"/>
<path id="Vector_34" d="M102.741 57.9259C101.351 57.9259 100.222 56.7976 100.222 55.4074V50.3704C100.222 48.9802 101.351 47.8519 102.741 47.8519C104.131 47.8519 105.259 48.9802 105.259 50.3704V55.4074C105.259 56.7976 104.131 57.9259 102.741 57.9259Z" fill="#9B8E82"/>
<path id="Vector_35" d="M90.148 141.037C88.7578 141.037 87.6295 139.909 87.6295 138.519V133.482C87.6295 132.091 88.7578 130.963 90.148 130.963C91.5382 130.963 92.6665 132.091 92.6665 133.482V138.519C92.6665 139.909 91.5382 141.037 90.148 141.037Z" fill="#9B8E82"/>
<path id="Vector_36" d="M102.741 141.037C101.351 141.037 100.222 139.909 100.222 138.519V133.482C100.222 132.091 101.351 130.963 102.741 130.963C104.131 130.963 105.259 132.091 105.259 133.482V138.519C105.259 139.909 104.131 141.037 102.741 141.037Z" fill="#9B8E82"/>
<path id="Vector_37" d="M115.333 141.037C113.943 141.037 112.815 139.909 112.815 138.519V133.482C112.815 132.091 113.943 130.963 115.333 130.963C116.724 130.963 117.852 132.091 117.852 133.482V138.519C117.852 139.909 116.724 141.037 115.333 141.037Z" fill="#9B8E82"/>
<path id="Vector_38" d="M127.926 141.037C126.535 141.037 125.407 139.909 125.407 138.519V133.482C125.407 132.091 126.535 130.963 127.926 130.963C129.316 130.963 130.444 132.091 130.444 133.482V138.519C130.444 139.909 129.316 141.037 127.926 141.037Z" fill="#9B8E82"/>
</g>
<defs>
<filter id="filter0_d_278_28" x="0" y="0" width="155.111" height="155.111" filterUnits="userSpaceOnUse" color-interpolation-filters="sRGB">
<feFlood flood-opacity="0" result="BackgroundImageFix"/>
<feColorMatrix in="SourceAlpha" type="matrix" values="0 0 0 0 0 0 0 0 0 0 0 0 0 0 0 0 0 0 127 0" result="hardAlpha"/>
<feOffset dy="2"/>
<feGaussianBlur stdDeviation="1"/>
<feComposite in2="hardAlpha" operator="out"/>
<feColorMatrix type="matrix" values="0 0 0 0 0 0 0 0 0 0 0 0 0 0 0 0 0 0 0.25 0"/>
<feBlend mode="normal" in2="BackgroundImageFix" result="effect1_dropShadow_278_28"/>
<feBlend mode="normal" in="SourceGraphic" in2="effect1_dropShadow_278_28" result="shape"/>
</filter>
</defs>
</svg>
