<svg width="24" height="24" viewBox="0 0 24 24" fill="none" xmlns="http://www.w3.org/2000/svg">
<g id="Group">
<path id="Vector" d="M3.5748 8.5275C1.1916 7.3365 0 6.741 0 6C0 5.259 1.1916 4.665 3.5748 3.4725L6.9444 1.788C9.3276 0.5955 10.5204 0 12 0C13.4808 0 14.6724 0.5955 17.0556 1.788L20.4252 3.4725C22.8084 4.6635 24 5.259 24 6C24 6.741 22.8084 7.335 20.4252 8.5275L17.0556 10.212C14.6724 11.406 13.4796 12 12 12C10.5192 12 9.3276 11.4045 6.9444 10.2135L3.576 8.526L3.5748 8.5275Z" fill="#146574"/>
<path id="Vector_2" fill-rule="evenodd" clip-rule="evenodd" d="M0 6C0 6.741 1.1916 7.335 3.5748 8.5275L6.9444 10.212C9.3276 11.406 10.5204 12 12 12C13.4808 12 14.6724 11.4045 17.0556 10.2135L20.4252 8.5275C22.8084 7.3365 24 6.741 24 6C24 5.259 22.8084 4.665 20.4252 3.4725L17.0556 1.788C14.6724 0.5955 13.4796 0 12 0C10.5192 0 9.3276 0.5955 6.9444 1.788L3.576 3.4725C1.1916 4.6635 0 5.259 0 6Z" fill="#146574"/>
<path id="Vector_3" opacity="0.7" d="M4.5192 9L3.5748 9.4725C1.1916 10.6635 0 11.2605 0 12C0 12.7395 1.1916 13.335 3.5748 14.5275L6.9444 16.212C9.3276 17.406 10.5204 18 12 18C13.4808 18 14.6724 17.4045 17.0556 16.2135L20.4252 14.5275C22.8084 13.3365 24 12.7395 24 12C24 11.2605 22.8084 10.665 20.4252 9.4725L19.4808 9L17.0556 10.2135C14.6724 11.4045 13.4796 12 12 12C10.5192 12 9.3276 11.4045 6.9444 10.2135L4.5204 9H4.5192Z" fill="#146574"/>
<path id="Vector_4" opacity="0.4" d="M4.5192 15L3.5748 15.4725C1.1916 16.6635 0 17.2605 0 18C0 18.741 1.1916 19.335 3.5748 20.5275L6.9444 22.212C9.3276 23.406 10.5204 24 12 24C13.4808 24 14.6724 23.4045 17.0556 22.212L20.4252 20.5275C22.8084 19.3365 24 18.741 24 18C24 17.2605 22.8084 16.665 20.4252 15.4725L19.4808 15L17.0556 16.2135C14.6724 17.4045 13.4796 18 12 18C10.5192 18 9.3276 17.4045 6.9444 16.2135L4.5204 15H4.5192Z" fill="#146574"/>
</g>
</svg>
