<svg xmlns="http://www.w3.org/2000/svg" width="61" height="60" viewBox="0 0 61 60" fill="none">
  <circle cx="30.6666" cy="30" r="29.9" fill="white" stroke="#4E514E" stroke-width="0.2"/>
  <path d="M20.7284 19.5C20.3224 19.5 19.933 19.658 19.6459 19.9393C19.3588 20.2206 19.1975 20.6022 19.1975 21V39C19.1975 39.3978 19.3588 39.7794 19.6459 40.0607C19.933 40.342 20.3224 40.5 20.7284 40.5H39.0983C39.5043 40.5 39.8937 40.342 40.1808 40.0607C40.4679 39.7794 40.6292 39.3978 40.6292 39V21C40.6292 20.6022 40.4679 20.2206 40.1808 19.9393C39.8937 19.658 39.5043 19.5 39.0983 19.5H32.2096C31.8036 19.5 31.4142 19.658 31.1271 19.9393C30.84 20.2206 30.6788 20.6022 30.6788 21V31.9395L34.7293 27.969C34.8731 27.8282 35.068 27.7491 35.2713 27.7491C35.4745 27.7491 35.6694 27.8282 35.8132 27.969C35.9569 28.1098 36.0376 28.3008 36.0376 28.5C36.0376 28.6992 35.9569 28.8902 35.8132 29.031L30.4553 34.281C30.3842 34.3508 30.2997 34.4063 30.2067 34.4441C30.1137 34.4819 30.014 34.5013 29.9134 34.5013C29.8127 34.5013 29.713 34.4819 29.62 34.4441C29.527 34.4063 29.4425 34.3508 29.3714 34.281L24.0135 29.031C23.9424 28.9613 23.8859 28.8785 23.8474 28.7874C23.8089 28.6963 23.7891 28.5986 23.7891 28.5C23.7891 28.4014 23.8089 28.3037 23.8474 28.2126C23.8859 28.1215 23.9424 28.0387 24.0135 27.969C24.0847 27.8993 24.1692 27.844 24.2622 27.8062C24.3551 27.7685 24.4548 27.7491 24.5554 27.7491C24.6561 27.7491 24.7557 27.7685 24.8487 27.8062C24.9417 27.844 25.0262 27.8993 25.0974 27.969L29.1479 31.9395V21C29.1479 20.2044 29.4705 19.4413 30.0447 18.8787C30.6188 18.3161 31.3976 18 32.2096 18H39.0983C39.9103 18 40.6891 18.3161 41.2632 18.8787C41.8374 19.4413 42.16 20.2044 42.16 21V39C42.16 39.7956 41.8374 40.5587 41.2632 41.1213C40.6891 41.6839 39.9103 42 39.0983 42H20.7284C19.9164 42 19.1376 41.6839 18.5635 41.1213C17.9893 40.5587 17.6667 39.7956 17.6667 39V21C17.6667 20.2044 17.9893 19.4413 18.5635 18.8787C19.1376 18.3161 19.9164 18 20.7284 18H24.5554C24.7584 18 24.9531 18.079 25.0967 18.2197C25.2402 18.3603 25.3209 18.5511 25.3209 18.75C25.3209 18.9489 25.2402 19.1397 25.0967 19.2803C24.9531 19.421 24.7584 19.5 24.5554 19.5H20.7284Z" fill="black" fill-opacity="0.5"/>
  <path d="M28.9979 31.5824L25.2024 27.8619L25.2023 27.8619C25.1171 27.7783 25.0161 27.7123 24.9051 27.6672C24.7942 27.6222 24.6754 27.5991 24.5554 27.5991C24.4355 27.5991 24.3167 27.6222 24.2058 27.6672C24.0948 27.7123 23.9938 27.7783 23.9086 27.8619C23.8233 27.9454 23.7555 28.0447 23.7092 28.1542C23.6629 28.2638 23.6391 28.3813 23.6391 28.5C23.6391 28.6187 23.6629 28.7362 23.7092 28.8458C23.7555 28.9553 23.8233 29.0546 23.9086 29.1381L29.2663 34.388L28.9979 31.5824ZM28.9979 31.5824V21C28.9979 20.1636 29.3371 19.362 29.9397 18.7715C30.5422 18.1811 31.3588 17.85 32.2096 17.85H39.0983C39.9491 17.85 40.7657 18.1811 41.3682 18.7715C41.9709 19.362 42.31 20.1636 42.31 21V39C42.31 39.8364 41.9709 40.638 41.3682 41.2285C40.7657 41.8189 39.9491 42.15 39.0983 42.15H20.7284C19.8776 42.15 19.061 41.8189 18.4585 41.2285C17.8558 40.638 17.5167 39.8364 17.5167 39V21C17.5167 20.1636 17.8558 19.362 18.4585 18.7715C19.061 18.1811 19.8776 17.85 20.7284 17.85H24.5554C24.7973 17.85 25.0298 17.9441 25.2017 18.1125L25.0967 18.2197L25.2017 18.1125C25.3737 18.2811 25.4709 18.5103 25.4709 18.75C25.4709 18.9897 25.3737 19.2189 25.2017 19.3875C25.0298 19.5559 24.7973 19.65 24.5554 19.65H20.7284C20.3612 19.65 20.0096 19.793 19.7509 20.0465C19.4923 20.2999 19.3475 20.643 19.3475 21V39C19.3475 39.357 19.4923 39.7001 19.7509 39.9535C20.0096 40.207 20.3612 40.35 20.7284 40.35H39.0983C39.4655 40.35 39.8171 40.207 40.0758 39.9535C40.3344 39.7001 40.4792 39.357 40.4792 39V21C40.4792 20.643 40.3344 20.2999 40.0758 20.0465C39.8171 19.793 39.4655 19.65 39.0983 19.65H32.2096C31.8424 19.65 31.4908 19.793 31.2321 20.0465C30.9735 20.2999 30.8288 20.643 30.8288 21V31.5824L34.6243 27.8619L34.6244 27.8619C34.7964 27.6932 35.0292 27.5991 35.2713 27.5991C35.5133 27.5991 35.7461 27.6932 35.9181 27.8619C36.0903 28.0306 36.1876 28.2601 36.1876 28.5C36.1876 28.7399 36.0903 28.9694 35.9181 29.1381L30.5604 34.388L28.9979 31.5824ZM30.2632 34.583C30.3741 34.5379 30.4751 34.4717 30.5602 34.3881H29.2665C29.3516 34.4717 29.4526 34.5379 29.5635 34.583C29.6745 34.6281 29.7934 34.6513 29.9134 34.6513C30.0333 34.6513 30.1522 34.6281 30.2632 34.583Z" stroke="black" stroke-opacity="0.5" stroke-width="0.3"/>
</svg>