<svg xmlns="http://www.w3.org/2000/svg" width="61" height="60" viewBox="0 0 61 60" fill="none">
  <circle cx="30.6666" cy="30" r="29.9" fill="white" stroke="#4E514E" stroke-width="0.2"/>
  <path fill-rule="evenodd" clip-rule="evenodd" d="M33.7522 21.9994C33.7523 21.065 34.1171 20.16 34.7831 19.4416C35.4491 18.7233 36.3744 18.2368 37.3984 18.0668C38.4223 17.8967 39.4803 18.0538 40.3887 18.5107C41.2971 18.9676 41.9986 19.6955 42.3713 20.5681C42.7441 21.4407 42.7646 22.4029 42.4293 23.2876C42.094 24.1723 41.4241 24.9238 40.5359 25.4116C39.6476 25.8993 38.5971 26.0926 37.5666 25.9578C36.5362 25.8231 35.5908 25.3688 34.8947 24.6738L31.1684 26.4977L26.9993 28.6354C27.5821 29.5561 27.735 30.6464 27.4244 31.6679L34.8947 35.3244C35.6255 34.5957 36.6291 34.1332 37.7149 34.0249C38.8007 33.9165 39.893 34.1698 40.7844 34.7366C41.6758 35.3034 42.3042 36.1442 42.5503 37.0994C42.7963 38.0546 42.6428 39.0576 42.119 39.9179C41.5952 40.7783 40.7376 41.436 39.7089 41.7663C38.6803 42.0965 37.5523 42.0762 36.5393 41.7093C35.5262 41.3423 34.6986 40.6542 34.2136 39.7758C33.7287 38.8973 33.6201 37.8896 33.9086 36.944L26.4383 33.2888C25.869 33.857 25.1302 34.267 24.3094 34.4703C23.4885 34.6735 22.62 34.6615 21.8065 34.4357C20.993 34.2098 20.2686 33.7796 19.7191 33.1959C19.1695 32.6121 18.8178 31.8994 18.7055 31.1419C18.5933 30.3844 18.7251 29.6139 19.0856 28.9216C19.446 28.2293 20.0198 27.6441 20.7393 27.2353C21.4587 26.8265 22.2935 26.6111 23.1451 26.6148C23.9966 26.6184 24.8291 26.8409 25.5442 27.2558L30.1659 24.8855L33.9086 23.0529C33.8046 22.7096 33.752 22.3553 33.7522 21.9994ZM38.2094 19.8457C37.8943 19.8457 37.5822 19.9014 37.291 20.0096C36.9998 20.1179 36.7352 20.2765 36.5124 20.4765C36.2895 20.6765 36.1127 20.9139 35.9921 21.1752C35.8715 21.4365 35.8094 21.7166 35.8094 21.9994C35.8094 22.2823 35.8715 22.5623 35.9921 22.8237C36.1127 23.085 36.2895 23.3224 36.5124 23.5224C36.7352 23.7224 36.9998 23.881 37.291 23.9892C37.5822 24.0975 37.8943 24.1532 38.2094 24.1532C38.846 24.1532 39.4564 23.9263 39.9065 23.5224C40.3566 23.1185 40.6095 22.5707 40.6095 21.9994C40.6095 21.4282 40.3566 20.8804 39.9065 20.4765C39.4564 20.0726 38.846 19.8457 38.2094 19.8457ZM23.1236 28.4607C22.487 28.4607 21.8766 28.6876 21.4265 29.0915C20.9764 29.4954 20.7235 30.0432 20.7235 30.6144C20.7235 31.1856 20.9764 31.7335 21.4265 32.1374C21.8766 32.5413 22.487 32.7682 23.1236 32.7682C23.7601 32.7682 24.3705 32.5413 24.8206 32.1374C25.2707 31.7335 25.5236 31.1856 25.5236 30.6144C25.5236 30.0432 25.2707 29.4954 24.8206 29.0915C24.3705 28.6876 23.7601 28.4607 23.1236 28.4607ZM35.8094 37.9987C35.8094 37.4275 36.0623 36.8797 36.5124 36.4758C36.9625 36.0719 37.5729 35.845 38.2094 35.845C38.846 35.845 39.4564 36.0719 39.9065 36.4758C40.3566 36.8797 40.6095 37.4275 40.6095 37.9987C40.6095 38.5699 40.3566 39.1177 39.9065 39.5216C39.4564 39.9255 38.846 40.1524 38.2094 40.1524C37.5729 40.1524 36.9625 39.9255 36.5124 39.5216C36.0623 39.1177 35.8094 38.5699 35.8094 37.9987Z" fill="black" fill-opacity="0.5"/>
</svg>