<svg width="25" height="26" viewBox="0 0 25 26" fill="none" xmlns="http://www.w3.org/2000/svg">
<path id="Vector" fill-rule="evenodd" clip-rule="evenodd" d="M3.71427 5.37762C3.71404 5.4605 3.69059 5.54166 3.6466 5.61191C3.60261 5.68216 3.53982 5.73868 3.46535 5.77508C3.39088 5.81148 3.30771 5.8263 3.22525 5.81787C3.14279 5.80943 3.06434 5.77808 2.99879 5.72735L0.170582 3.52776C0.117451 3.48625 0.0744753 3.43318 0.0449184 3.37258C0.0153615 3.31198 0 3.24544 0 3.17802C0 3.1106 0.0153615 3.04406 0.0449184 2.98347C0.0744753 2.92287 0.117451 2.8698 0.170582 2.82829L2.99879 0.626919C3.06458 0.576007 3.14336 0.544609 3.22613 0.536307C3.30891 0.528005 3.39235 0.543133 3.46695 0.579965C3.54154 0.616797 3.60428 0.67385 3.64801 0.744617C3.69174 0.815384 3.7147 0.897017 3.71427 0.980203V2.29392H14.3666V0.976652C14.3666 0.893459 14.39 0.811935 14.4341 0.74138C14.4782 0.670824 14.5412 0.614079 14.616 0.577616C14.6907 0.541153 14.7743 0.526441 14.857 0.535158C14.9397 0.543876 15.0184 0.575672 15.0839 0.626919L17.9103 2.82651C17.9635 2.86802 18.0064 2.92109 18.036 2.98169C18.0656 3.04229 18.0809 3.10882 18.0809 3.17625C18.0809 3.24367 18.0656 3.3102 18.036 3.3708C18.0064 3.4314 17.9635 3.48447 17.9103 3.52598L15.0839 5.72735C15.0183 5.77869 14.9395 5.81051 14.8566 5.81916C14.7737 5.82781 14.69 5.81294 14.6152 5.77627C14.5403 5.73959 14.4773 5.68258 14.4334 5.61176C14.3894 5.54094 14.3663 5.45918 14.3666 5.37584V4.06567H3.71427V5.37762ZM15.2543 9.39156H2.82657C2.59114 9.39156 2.36535 9.48508 2.19888 9.65155C2.0324 9.81802 1.93888 10.0438 1.93888 10.2792V22.7063C1.93888 22.9417 2.0324 23.1675 2.19888 23.334C2.36535 23.5004 2.59114 23.5939 2.82657 23.5939H15.2543C15.4898 23.5939 15.7156 23.5004 15.882 23.334C16.0485 23.1675 16.142 22.9417 16.142 22.7063V10.2792C16.142 10.0438 16.0485 9.81802 15.882 9.65155C15.7156 9.48508 15.4898 9.39156 15.2543 9.39156ZM2.82657 7.61627C2.12028 7.61627 1.44291 7.89683 0.943483 8.39622C0.444056 8.89562 0.163481 9.57296 0.163481 10.2792V22.7063C0.163481 23.4126 0.444056 24.0899 0.943483 24.5893C1.44291 25.0887 2.12028 25.3692 2.82657 25.3692H15.2543C15.9606 25.3692 16.638 25.0887 17.1374 24.5893C17.6369 24.0899 17.9174 23.4126 17.9174 22.7063V10.2792C17.9174 9.57296 17.6369 8.89562 17.1374 8.39622C16.638 7.89683 15.9606 7.61627 15.2543 7.61627H2.82657ZM24.5556 11.1669H23.2436V21.8186H24.5556C24.6385 21.8189 24.7197 21.8423 24.79 21.8863C24.8602 21.9303 24.9167 21.9931 24.9531 22.0676C24.9895 22.142 25.0044 22.2252 24.9959 22.3076C24.9875 22.3901 24.9561 22.4685 24.9054 22.5341L22.7057 25.3621C22.6642 25.4153 22.6111 25.4582 22.5505 25.4878C22.4899 25.5174 22.4234 25.5327 22.3559 25.5327C22.2885 25.5327 22.222 25.5174 22.1614 25.4878C22.1008 25.4582 22.0477 25.4153 22.0062 25.3621L19.8047 22.5341C19.7539 22.4684 19.7225 22.3898 19.7141 22.3072C19.7057 22.2246 19.7207 22.1413 19.7573 22.0668C19.794 21.9922 19.8507 21.9295 19.9213 21.8856C19.9918 21.8418 20.0732 21.8186 20.1562 21.8186H21.4682V11.1669H20.1562C20.0733 11.1666 19.9922 11.1432 19.9219 11.0992C19.8517 11.0552 19.7951 10.9924 19.7587 10.918C19.7223 10.8435 19.7075 10.7603 19.7159 10.6779C19.7244 10.5954 19.7557 10.517 19.8065 10.4514L22.0062 7.62337C22.0477 7.57024 22.1008 7.52727 22.1614 7.49771C22.222 7.46816 22.2885 7.45279 22.3559 7.45279C22.4234 7.45279 22.4899 7.46816 22.5505 7.49771C22.6111 7.52727 22.6642 7.57024 22.7057 7.62337L24.9072 10.4514C24.958 10.5171 24.9894 10.5957 24.9977 10.6783C25.0061 10.7609 24.9911 10.8442 24.9545 10.9187C24.9179 10.9933 24.8611 11.056 24.7906 11.0999C24.7201 11.1438 24.6387 11.167 24.5556 11.1669Z" fill="#1A2A39"/>
</svg>
