<svg width="50" height="70" viewBox="0 0 50 70" fill="none" xmlns="http://www.w3.org/2000/svg">
<path id="Vector" d="M41.4548 35L1.03808 4.47311C0.705318 4.2271 0.442247 3.93503 0.264083 3.6138C0.0859195 3.29258 -0.00379769 2.94857 0.000123181 2.60169C0.00404405 2.25482 0.101522 1.91195 0.286923 1.59295C0.472324 1.27394 0.741965 0.985125 1.08024 0.743214C1.41851 0.501302 1.8187 0.311097 2.25765 0.183607C2.6966 0.0561168 3.16559 -0.0061278 3.63749 0.000475381C4.10939 0.00707856 4.57481 0.0823985 5.00684 0.222076C5.43887 0.361754 5.82892 0.563016 6.15442 0.814216L48.9889 33.1706C49.6373 33.6603 50 34.3167 50 35C50 35.6833 49.6373 36.3397 48.9889 36.8294L6.15442 69.1858C5.82892 69.437 5.43887 69.6383 5.00684 69.7779C4.57481 69.9176 4.10939 69.9929 3.63749 69.9995C3.16559 70.0061 2.6966 69.9439 2.25765 69.8164C1.8187 69.6889 1.41851 69.4987 1.08024 69.2568C0.741965 69.0149 0.472324 68.7261 0.286923 68.4071C0.101522 68.0881 0.00404405 67.7452 0.000123181 67.3983C-0.00379769 67.0514 0.0859195 66.7074 0.264083 66.3862C0.442247 66.065 0.705318 65.7729 1.03808 65.5269L41.4548 35Z" fill="#146574"/>
</svg>
