<svg width="50" height="70" viewBox="0 0 50 70" fill="none" xmlns="http://www.w3.org/2000/svg">
<path id="Vector" d="M8.54519 35L48.9619 4.47311C49.2947 4.2271 49.5578 3.93503 49.7359 3.6138C49.9141 3.29258 50.0038 2.94857 49.9999 2.60169C49.996 2.25482 49.8985 1.91195 49.7131 1.59295C49.5277 1.27394 49.258 0.985125 48.9198 0.743214C48.5815 0.501302 48.1813 0.311097 47.7424 0.183607C47.3034 0.0561168 46.8344 -0.0061278 46.3625 0.000475381C45.8906 0.00707856 45.4252 0.0823985 44.9932 0.222076C44.5611 0.361754 44.1711 0.563016 43.8456 0.814216L1.01108 33.1706C0.362743 33.6603 0 34.3167 0 35C0 35.6833 0.362743 36.3397 1.01108 36.8294L43.8456 69.1858C44.1711 69.437 44.5611 69.6383 44.9932 69.7779C45.4252 69.9176 45.8906 69.9929 46.3625 69.9995C46.8344 70.0061 47.3034 69.9439 47.7424 69.8164C48.1813 69.6889 48.5815 69.4987 48.9198 69.2568C49.258 69.0149 49.5277 68.7261 49.7131 68.4071C49.8985 68.0881 49.996 67.7452 49.9999 67.3983C50.0038 67.0514 49.9141 66.7074 49.7359 66.3862C49.5578 66.065 49.2947 65.7729 48.9619 65.5269L8.54519 35Z" fill="#146574"/>
</svg>
