<svg width="27" height="26" viewBox="0 0 27 26" fill="none" xmlns="http://www.w3.org/2000/svg">
<path id="Vector" d="M22.4725 1.55222L22.4531 1.53306H24.6465V3.73424L17.9198 10.3831V10.0599C17.9198 9.18212 17.2082 8.47051 16.3304 8.4705L15.4732 8.4705L22.4446 1.57979L22.4725 1.55222ZM7.88119 12.5773C8.1524 11.8944 8.35757 11.033 8.41272 9.84703H9.69834C9.52185 11.738 9.91265 12.7925 10.2615 13.7315C10.4228 14.1655 10.5716 14.5663 10.6527 15.0352C10.7337 15.5034 10.7474 16.0408 10.6359 16.746C10.5176 17.4946 10.2919 17.98 10.0014 18.3439C9.7101 18.7087 9.3519 18.9539 8.96153 19.2206L8.96014 19.2216C8.52737 19.5174 8.07503 19.8266 7.68341 20.3103L7.71354 20.3347L7.6834 20.3103C6.69519 21.5314 6.46024 22.8941 6.44435 23.8576H5.16098C6.06115 20.7075 5.98677 19.2105 5.92572 17.9929C5.89091 17.2973 5.86382 16.7532 6.05466 16.0256C6.24907 15.2843 6.57133 14.8054 6.94854 14.2453C7.26646 13.7734 7.60726 13.2671 7.88119 12.5773ZM26.0383 1.74597C26.0383 0.868157 25.3267 0.156546 24.4489 0.156546H10.6686C9.79079 0.156546 9.07918 0.868157 9.07918 1.74597V8.47052H2.55017C1.67236 8.47052 0.960745 9.18213 0.960745 10.0599V23.6447C0.960745 24.5225 1.67236 25.2341 2.55017 25.2341H16.3304C17.2082 25.2341 17.9198 24.5225 17.9198 23.6447V16.9201H24.4489C25.3267 16.9201 26.0383 16.2085 26.0383 15.3307V1.74597ZM16.5281 15.8325V16.794C15.9713 16.7026 15.2644 16.6113 14.6153 16.7949C13.9444 16.9846 13.3395 17.4664 13.0208 18.527C12.6864 19.6397 11.7793 20.9211 11.0456 21.9571C10.4606 22.7829 10.0539 23.3718 9.85215 23.8576H7.8362C7.85175 23.1136 8.03376 22.0802 8.76991 21.1705C9.03336 20.8451 9.37983 20.6079 9.75275 20.3531L9.73088 20.3211L9.75275 20.3531L9.75429 20.352C10.1806 20.0606 10.6635 19.7305 11.0801 19.2143C11.4977 18.6968 11.8473 17.9942 12.0109 16.9586C12.2892 15.1985 11.9216 14.2087 11.5679 13.2567L11.5677 13.2562C11.2336 12.357 10.9177 11.5068 11.096 9.84703H12.9542C13.0056 10.1018 13.0501 10.3657 13.097 10.6449L13.0976 10.6487C13.373 12.2878 13.719 14.3477 15.9432 15.479C16.0618 15.5393 16.1401 15.5816 16.1908 15.6104C16.272 15.702 16.3867 15.7701 16.5281 15.8325ZM16.5281 9.84703V14.2282C14.9741 13.4095 14.7301 11.9683 14.4699 10.4193C14.4381 10.2305 14.4046 10.0384 14.3694 9.84703H16.5281ZM10.4709 8.47046V7.37586L16.3821 1.53306H20.5231L13.5044 8.47048L10.4709 8.47046ZM10.4709 5.4298V1.53306H14.4133L10.4709 5.4298ZM2.35247 9.84703H4.30782C4.11963 10.7285 3.63705 11.8647 3.09305 13.1429C2.85016 13.7136 2.59765 14.3077 2.35247 14.9216V9.84703ZM2.35247 23.8576V19.7255C2.71492 17.5813 3.5955 15.5102 4.37575 13.677C4.99312 12.2264 5.54324 10.9324 5.722 9.84703H7.01977C6.96951 10.8218 6.80879 11.512 6.58952 12.0648C6.3671 12.6255 6.08385 13.0464 5.7903 13.4822L5.7897 13.4831C5.38379 14.0857 4.96099 14.7135 4.70749 15.6799C4.46307 16.6118 4.49848 17.3179 4.5357 18.0601L4.53574 18.061C4.59393 19.2223 4.66595 20.6604 3.71219 23.8576H2.35247ZM16.5281 18.1902V23.8576H11.4256C11.6468 23.5075 11.9401 23.0933 12.1855 22.7468L12.1876 22.7438C12.9732 21.6346 13.9557 20.2476 14.3549 18.9191C14.428 18.6757 14.5147 18.4962 14.6225 18.3662C14.7295 18.2369 14.8587 18.155 15.0199 18.1088C15.1821 18.0623 15.3779 18.0516 15.618 18.0672C15.8579 18.0828 16.1396 18.1244 16.473 18.1809L16.5281 18.1902ZM17.9198 12.329L24.6465 5.6802V9.94905L18.9865 15.5436H17.9198V12.329ZM24.6465 15.5436H20.9552L24.6465 11.895V15.5436Z" fill="#1A2A39" stroke="#1A2A39" stroke-width="0.077533"/>
</svg>
