<svg width="41" height="40" viewBox="0 0 41 40" fill="none" xmlns="http://www.w3.org/2000/svg">
<g id="fluent:send-28-filled" clip-path="url(#clip0_1122_190)">
<path id="Vector" d="M9.22402 4.17894C7.84831 3.5218 6.33688 4.77894 6.72974 6.2518L9.60974 17.0132C9.68191 17.2837 9.83196 17.527 10.0412 17.7129C10.2505 17.8988 10.5098 18.0191 10.7869 18.0589L24.9069 20.0761C25.3155 20.1332 25.3155 20.7247 24.9069 20.7832L10.7883 22.7989C10.5112 22.8387 10.2519 22.9591 10.0427 23.145C9.83339 23.3309 9.68334 23.5742 9.61117 23.8447L6.72974 34.6118C6.33688 36.0832 7.84831 37.3404 9.22402 36.6847L39.9354 22.0432C41.2912 21.3975 41.2912 19.4661 39.9354 18.8189L9.22402 4.17894Z" fill="white"/>
</g>
<defs>
<clipPath id="clip0_1122_190">
<rect width="40" height="40" fill="white" transform="translate(0.666504)"/>
</clipPath>
</defs>
</svg>
