<svg width="24" height="24" viewBox="0 0 24 24" fill="none" xmlns="http://www.w3.org/2000/svg">
<g id="Group 1">
<path id="Vector" d="M20 6.54545H4V4.36364H20V6.54545ZM18 0H6V2.18182H18V0ZM10.312 20.8364L7.012 17.2364L8.412 15.7091L10.312 17.7818L15.612 12L17.012 13.5273L10.312 20.8364Z" fill="#146574"/>
<path id="Vector_2" d="M22 8.72728H2C1.46957 8.72728 0.960859 8.95715 0.585786 9.36632C0.210714 9.77549 0 10.3304 0 10.9091L0 21.8182C0 22.3968 0.210714 22.9518 0.585786 23.361C0.960859 23.7701 1.46957 24 2 24H22C22.5304 24 23.0391 23.7701 23.4142 23.361C23.7893 22.9518 24 22.3968 24 21.8182V10.9091C24 10.3304 23.7893 9.77549 23.4142 9.36632C23.0391 8.95715 22.5304 8.72728 22 8.72728ZM22 21.8182H2V10.9091H22V21.8182Z" fill="#146574"/>
</g>
</svg>
